# File created by Blade
# Date/Time:  Wed Jan 21 18:02:19 2015
# Frame Rate: 120.000 fps
#------------------------------------------------------
:FULLY-SPECIFIED
:DEGREES
942
root 14.017248 35.111134 -22.391908 -209.497114 -40.724406 -175.996620
Spine 23.729701 -17.512562 -17.413848
Head 9.644306 -13.850599 10.293257
LeftShoulder -0.442887 -23.720253 1.739718
LeftArm -6.520989 19.023102 -59.896644
LeftForeArm -3.057300 -0.000000 3.614388
LeftHand -0.989058 -0.000000 6.867081
LeftHandThumb1 -26.253704 0.000000 33.147579
RightShoulder -19.728704 -20.281435 11.420023
RightArm -8.366293 15.076733 61.725493
RightForeArm -12.087014 -0.000000 7.763123
RightHand -6.815708 -0.000000 -0.742822
RightHandThumb1 -24.326973 -0.000000 -32.862282
LeftUpLeg 12.485308 -3.143277 -4.422258
LeftLeg 27.995976 -0.000000 -0.000000
LeftFoot -24.759223 9.981228 -7.542163
LeftToeBase 25.160457 -0.000000 -0.000000
RightUpLeg -30.069050 8.293500 6.764989
RightLeg 47.348569 -0.000000 -0.000000
RightFoot -30.357087 -34.894775 15.450905
RightToeBase 19.016609 -0.000000 -0.000000
943
root 14.074177 35.142580 -22.369381 -210.885827 -39.898159 -175.293736
Spine 25.774204 -17.657692 -17.440713
Head 8.468184 -12.776408 11.282644
LeftShoulder 0.060996 -23.924046 2.134959
LeftArm -5.921805 19.583687 -59.647286
LeftForeArm -3.763516 -0.000000 3.486256
LeftHand -1.002667 -0.000000 6.971514
LeftHandThumb1 -26.253704 0.000000 33.147579
RightShoulder -19.370231 -19.918049 11.573400
RightArm -7.962922 13.662601 61.523188
RightForeArm -11.659339 -0.000000 8.404376
RightHand -6.939046 -0.000000 -1.029041
RightHandThumb1 -24.326973 -0.000000 -32.862282
LeftUpLeg 13.339198 -2.869190 -3.699670
LeftLeg 28.093272 -0.000000 -0.000000
LeftFoot -24.930475 10.513653 -7.791218
LeftToeBase 25.154911 -0.000000 -0.000000
RightUpLeg -32.339549 8.551374 6.791544
RightLeg 45.314358 -0.000000 -0.000000
RightFoot -29.794176 -35.124626 15.422205
RightToeBase 19.103093 -0.000000 -0.000000
944
root 14.126228 35.174663 -22.346120 -212.247590 -39.050147 -174.607419
Spine 27.802777 -17.755389 -17.421768
Head 7.368716 -11.662299 12.190806
LeftShoulder 0.548680 -23.970647 2.418263
LeftArm -5.129656 20.225812 -59.166218
LeftForeArm -4.498557 -0.000000 3.302925
LeftHand -1.104445 -0.000000 6.708100
LeftHandThumb1 -26.253704 0.000000 33.147579
RightShoulder -19.008584 -19.618280 11.762385
RightArm -7.252498 13.130888 61.075170
RightForeArm -11.932247 -0.000000 8.688861
RightHand -6.817469 -0.000000 -1.171297
RightHandThumb1 -24.326973 -0.000000 -32.862282
LeftUpLeg 14.203011 -2.653265 -2.982449
LeftLeg 28.187881 -0.000000 -0.000000
LeftFoot -25.093195 11.074998 -8.046165
LeftToeBase 25.150948 -0.000000 -0.000000
RightUpLeg -34.604562 8.733248 6.788538
RightLeg 43.232745 -0.000000 -0.000000
RightFoot -29.138846 -35.157581 15.392341
RightToeBase 18.711306 -0.000000 -0.000000
945
root 14.159066 35.208903 -22.331942 -213.616545 -38.045270 -174.014742
Spine 29.817107 -17.758824 -17.324342
Head 6.382758 -10.597258 12.829428
LeftShoulder 1.005566 -24.031321 2.578979
LeftArm -4.410098 20.777014 -58.519890
LeftForeArm -5.458213 -0.000000 3.025774
LeftHand -1.133663 -0.000000 6.362495
LeftHandThumb1 -26.253704 0.000000 33.147579
RightShoulder -18.536639 -19.432022 11.810954
RightArm -6.140685 13.555203 60.505765
RightForeArm -13.218707 -0.000000 8.365500
RightHand -6.195596 -0.000000 -0.793109
RightHandThumb1 -24.326973 -0.000000 -32.862282
LeftUpLeg 15.251956 -2.243109 -2.214180
LeftLeg 28.168604 -0.000000 -0.000000
LeftFoot -25.248588 11.497192 -8.200907
LeftToeBase 25.209479 -0.000000 -0.000000
RightUpLeg -36.754295 8.986099 6.797695
RightLeg 41.099833 -0.000000 -0.000000
RightFoot -28.355900 -35.004337 15.199365
RightToeBase 18.722579 -0.000000 -0.000000
946
root 14.180060 35.241780 -22.319766 -214.932467 -37.081294 -173.411417
Spine 31.787444 -17.823019 -17.194670
Head 5.343079 -9.469943 13.479383
LeftShoulder 1.445990 -24.265198 2.656936
LeftArm -3.868828 20.617240 -57.779223
LeftForeArm -5.391682 0.000000 2.747343
LeftHand -1.408716 0.000000 5.663074
LeftHandThumb1 -26.253704 0.000000 33.147579
RightShoulder -17.916199 -19.004513 11.852555
RightArm -5.342925 13.310760 59.708678
RightForeArm -13.789364 -0.000000 8.407174
RightHand -5.967357 -0.000000 -0.499248
RightHandThumb1 -24.326973 -0.000000 -32.862282
LeftUpLeg 16.260982 -1.919800 -1.448113
LeftLeg 28.173171 -0.000000 -0.000000
LeftFoot -25.436139 11.912575 -8.324664
LeftToeBase 25.207790 -0.000000 -0.000000
RightUpLeg -38.936583 9.041788 6.816770
RightLeg 38.980999 -0.000000 -0.000000
RightFoot -27.349767 -34.611664 14.923554
RightToeBase 18.180990 -0.000000 -0.000000
947
root 14.184877 35.273589 -22.303335 -216.180992 -36.038594 -172.872411
Spine 33.719191 -17.894907 -16.997978
Head 4.348582 -8.279616 13.938927
LeftShoulder 1.705196 -24.338684 2.657923
LeftArm -3.174687 20.585849 -56.900097
LeftForeArm -5.773533 0.000000 2.468254
LeftHand -1.521713 -0.000000 5.151269
LeftHandThumb1 -26.253704 0.000000 33.147579
RightShoulder -17.107206 -18.493503 11.780690
RightArm -4.583344 12.525320 58.835369
RightForeArm -13.906163 -0.000000 8.440311
RightHand -5.737121 -0.000000 -0.507530
RightHandThumb1 -24.326973 -0.000000 -32.862282
LeftUpLeg 17.253414 -1.524030 -0.681614
LeftLeg 28.212558 -0.000000 -0.000000
LeftFoot -25.617163 12.345608 -8.535089
LeftToeBase 25.058439 -0.000000 -0.000000
RightUpLeg -41.107502 9.056898 6.851609
RightLeg 36.848554 -0.000000 -0.000000
RightFoot -26.168985 -34.050918 14.641012
RightToeBase 17.480457 -0.000000 -0.000000
948
root 14.192457 35.304989 -22.291593 -217.371186 -35.145638 -172.194758
Spine 35.522453 -18.132171 -16.733823
Head 3.400536 -7.181870 14.347271
LeftShoulder 2.024448 -24.572590 2.572376
LeftArm -2.824056 20.408471 -55.997625
LeftForeArm -5.983188 -0.000000 2.427319
LeftHand -1.827778 -0.000000 4.647496
LeftHandThumb1 -26.253704 0.000000 33.147579
RightShoulder -16.364823 -17.982953 11.765267
RightArm -3.675244 11.717073 57.813293
RightForeArm -13.889272 0.000000 8.352717
RightHand -5.476171 -0.000000 -0.426908
RightHandThumb1 -24.326973 -0.000000 -32.862282
LeftUpLeg 18.055415 -1.344587 0.126485
LeftLeg 28.361311 -0.000000 -0.000000
LeftFoot -25.765865 12.657221 -8.700226
LeftToeBase 24.778086 -0.000000 -0.000000
RightUpLeg -43.344841 8.920831 6.846744
RightLeg 34.651244 -0.000000 -0.000000
RightFoot -24.818329 -33.860160 13.945733
RightToeBase 17.435090 -0.000000 -0.000000
949
root 14.189556 35.334402 -22.283210 -218.505094 -34.216664 -171.496525
Spine 37.239690 -18.421325 -16.345294
Head 2.477610 -6.101255 14.578220
LeftShoulder 2.196103 -24.707476 2.451763
LeftArm -2.292955 19.673478 -55.057755
LeftForeArm -5.695763 -0.000000 2.121206
LeftHand -1.951174 0.000000 4.382032
LeftHandThumb1 -26.253704 0.000000 33.147579
RightShoulder -15.582229 -17.491136 11.656953
RightArm -2.651903 11.256336 56.698353
RightForeArm -14.058237 -0.000000 8.228633
RightHand -5.224578 -0.000000 -0.267978
RightHandThumb1 -24.326973 -0.000000 -32.862282
LeftUpLeg 18.780200 -1.145738 0.998723
LeftLeg 28.589661 -0.000000 -0.000000
LeftFoot -26.067143 12.895034 -8.949514
LeftToeBase 24.822796 -0.000000 -0.000000
RightUpLeg -45.600573 8.703212 6.879520
RightLeg 32.493874 -0.000000 -0.000000
RightFoot -23.480222 -33.675983 13.607388
RightToeBase 16.877893 -0.000000 -0.000000
950
root 14.169432 35.369386 -22.284514 -219.735100 -33.144873 -170.837283
Spine 39.051714 -18.550956 -15.811874
Head 1.523714 -5.038009 14.625471
LeftShoulder 2.286516 -24.785064 2.329653
LeftArm -1.653758 19.190993 -54.175367
LeftForeArm -5.942963 -0.000000 1.796321
LeftHand -2.110859 -0.000000 4.016067
LeftHandThumb1 -26.253704 0.000000 33.147579
RightShoulder -14.742065 -16.992955 11.411971
RightArm -1.616170 10.779546 55.607926
RightForeArm -14.033551 0.000000 8.165204
RightHand -4.928253 -0.000000 -0.024395
RightHandThumb1 -24.326973 -0.000000 -32.862282
LeftUpLeg 19.709616 -0.893911 1.910222
LeftLeg 28.777160 -0.000000 -0.000000
LeftFoot -26.338788 13.093965 -9.221787
LeftToeBase 24.846107 -0.000000 -0.000000
RightUpLeg -47.638897 8.432873 7.045034
RightLeg 30.338934 -0.000000 -0.000000
RightFoot -22.294223 -33.649757 13.433705
RightToeBase 15.732250 -0.000000 -0.000000
951
root 14.136201 35.399403 -22.287345 -220.910472 -32.215567 -170.126353
Spine 40.785382 -18.818108 -15.209805
Head 0.522109 -4.102375 14.511528
LeftShoulder 2.336378 -24.811786 2.241285
LeftArm -1.103331 18.597201 -53.417971
LeftForeArm -6.200729 -0.000000 1.635132
LeftHand -2.285738 -0.000000 4.057895
LeftHandThumb1 -26.253704 0.000000 33.147579
RightShoulder -13.941554 -16.447639 11.076085
RightArm -0.595892 10.477136 54.488498
RightForeArm -14.177543 -0.000000 8.173700
RightHand -4.733729 -0.000000 0.249767
RightHandThumb1 -24.326973 -0.000000 -32.862282
LeftUpLeg 20.498321 -0.784433 2.786228
LeftLeg 29.074670 -0.000000 -0.000000
LeftFoot -26.573008 13.330625 -9.452730
LeftToeBase 24.651385 -0.000000 -0.000000
RightUpLeg -49.780199 7.957275 7.131284
RightLeg 28.404984 -0.000000 -0.000000
RightFoot -21.594858 -33.839658 13.191863
RightToeBase 15.404624 -0.000000 -0.000000
952
root 14.099723 35.433236 -22.294731 -222.154781 -31.325945 -169.275085
Spine 42.541213 -19.182426 -14.465136
Head -0.478299 -3.261824 14.277064
LeftShoulder 2.474525 -24.931081 2.121992
LeftArm -0.817263 18.195196 -52.783543
LeftForeArm -6.659707 -0.000000 1.569502
LeftHand -2.409021 0.000000 4.046697
LeftHandThumb1 -26.253704 0.000000 33.147579
RightShoulder -13.044196 -15.909335 10.663530
RightArm 0.366030 10.254695 53.380652
RightForeArm -14.209882 -0.000000 8.282782
RightHand -4.556061 -0.000000 0.301524
RightHandThumb1 -24.326973 -0.000000 -32.862282
LeftUpLeg 21.252892 -0.816641 3.736797
LeftLeg 29.451410 -0.000000 -0.000000
LeftFoot -26.938256 13.497297 -9.772454
LeftToeBase 24.739839 -0.000000 -0.000000
RightUpLeg -51.830738 7.302404 7.270044
RightLeg 26.517286 -0.000000 -0.000000
RightFoot -21.117070 -33.995050 13.102813
RightToeBase 14.864175 -0.000000 -0.000000
